<mxfile host="65bd71144e">
    <diagram id="Q1Ns4pAiJ-tXla9sLkWo" name="Page-1">
        <mxGraphModel dx="947" dy="629" grid="1" gridSize="10" guides="1" tooltips="1" connect="1" arrows="1" fold="1" page="1" pageScale="1" pageWidth="827" pageHeight="1169" math="0" shadow="0">
            <root>
                <mxCell id="0"/>
                <mxCell id="1" parent="0"/>
                <mxCell id="16" value="" style="rounded=0;whiteSpace=wrap;html=1;shadow=0;strokeColor=#FFFFFF;fontSize=14;fontColor=#FFFFFF;fillColor=#FFE6CC;" parent="1" vertex="1">
                    <mxGeometry x="3" y="10" width="819" height="1140" as="geometry"/>
                </mxCell>
                <mxCell id="96" value="&lt;font color=&quot;#ffffff&quot;&gt;&lt;span style=&quot;font-size: 14px;&quot;&gt;DP300&lt;/span&gt;&lt;/font&gt;" style="rounded=1;whiteSpace=wrap;html=1;strokeColor=#FFFFFF;fillColor=#007FFF;shadow=1;align=left;" vertex="1" parent="1">
                    <mxGeometry x="560" y="550" width="249.01" height="30" as="geometry"/>
                </mxCell>
                <mxCell id="123" value="" style="rounded=1;whiteSpace=wrap;html=1;shadow=1;" vertex="1" parent="1">
                    <mxGeometry x="7.99" y="820" width="260.01" height="310" as="geometry"/>
                </mxCell>
                <mxCell id="53" value="&lt;b&gt;&lt;font style=&quot;font-size: 14px;&quot;&gt;AIエンジニア:★&lt;/font&gt;&lt;/b&gt;" style="rounded=1;whiteSpace=wrap;html=1;" parent="1" vertex="1">
                    <mxGeometry x="7.999999999999993" y="160" width="249.67" height="30" as="geometry"/>
                </mxCell>
                <mxCell id="75" value="&lt;font style=&quot;&quot; color=&quot;#1a1a1a&quot;&gt;&lt;span style=&quot;font-size: 36px;&quot;&gt;Microsoft Certified Azure Data Roadmap&lt;/span&gt;&lt;/font&gt;" style="rounded=0;whiteSpace=wrap;html=1;shadow=1;strokeColor=#000000;fontSize=14;fontColor=#FFFFFF;fillColor=#FFFFFF;" parent="1" vertex="1">
                    <mxGeometry x="8" y="40" width="808" height="60" as="geometry"/>
                </mxCell>
                <mxCell id="80" value="&lt;span style=&quot;background-color: initial; color: rgb(255, 255, 255); font-size: 14px;&quot;&gt;AI900&lt;/span&gt;" style="rounded=1;whiteSpace=wrap;html=1;strokeColor=#FFFFFF;fillColor=#007FFF;shadow=1;align=left;" vertex="1" parent="1">
                    <mxGeometry x="8" y="230" width="249.01" height="30" as="geometry"/>
                </mxCell>
                <mxCell id="81" value="&lt;div style=&quot;&quot;&gt;&lt;font color=&quot;#1a1a1a&quot;&gt;&lt;span style=&quot;font-size: 14px;&quot;&gt;Microsoft Certified:&lt;/span&gt;&lt;/font&gt;&lt;/div&gt;&lt;div style=&quot;&quot;&gt;&lt;font color=&quot;#1a1a1a&quot;&gt;&lt;span style=&quot;font-size: 14px;&quot;&gt;Azure AI Fundamentals&lt;/span&gt;&lt;/font&gt;&lt;br&gt;&lt;/div&gt;" style="rounded=1;whiteSpace=wrap;html=1;align=left;" vertex="1" parent="1">
                    <mxGeometry x="8" y="190" width="250" height="40" as="geometry"/>
                </mxCell>
                <mxCell id="117" style="edgeStyle=orthogonalEdgeStyle;html=1;entryX=1;entryY=0.5;entryDx=0;entryDy=0;fontSize=12;fontColor=#1A1A1A;" edge="1" parent="1" source="79" target="81">
                    <mxGeometry relative="1" as="geometry"/>
                </mxCell>
                <mxCell id="125" value="" style="edgeStyle=orthogonalEdgeStyle;html=1;fontSize=24;fontColor=#1A1A1A;fillColor=#FF3333;strokeColor=#FF3333;" edge="1" parent="1" source="89" target="94">
                    <mxGeometry relative="1" as="geometry"/>
                </mxCell>
                <mxCell id="89" value="&lt;span style=&quot;background-color: initial; color: rgb(255, 255, 255); font-size: 14px;&quot;&gt;AZ900&lt;/span&gt;" style="rounded=1;whiteSpace=wrap;html=1;strokeColor=#FFFFFF;fillColor=#007FFF;shadow=1;align=left;" vertex="1" parent="1">
                    <mxGeometry x="287.16999999999996" y="230" width="249.01" height="30" as="geometry"/>
                </mxCell>
                <mxCell id="91" value="&lt;div style=&quot;text-align: left;&quot;&gt;&lt;span style=&quot;background-color: initial; font-size: 14px;&quot;&gt;&lt;b&gt;Azureの基礎：&lt;/b&gt;&lt;/span&gt;&lt;b style=&quot;background-color: initial; border-color: var(--border-color);&quot;&gt;&lt;font style=&quot;border-color: var(--border-color); font-size: 14px;&quot;&gt;★&lt;/font&gt;&lt;/b&gt;&lt;/div&gt;" style="rounded=1;whiteSpace=wrap;html=1;" vertex="1" parent="1">
                    <mxGeometry x="287.16999999999996" y="160" width="249.67" height="30" as="geometry"/>
                </mxCell>
                <mxCell id="126" style="edgeStyle=orthogonalEdgeStyle;html=1;entryX=0.5;entryY=0;entryDx=0;entryDy=0;fontSize=24;fontColor=#1A1A1A;fillColor=#FF3333;strokeColor=#FF3333;" edge="1" parent="1" source="92" target="97">
                    <mxGeometry relative="1" as="geometry"/>
                </mxCell>
                <mxCell id="128" style="edgeStyle=orthogonalEdgeStyle;html=1;fontSize=24;fontColor=#1A1A1A;fillColor=#FF3333;strokeColor=#FF3333;" edge="1" parent="1" source="92" target="103">
                    <mxGeometry relative="1" as="geometry"/>
                </mxCell>
                <mxCell id="129" value="" style="edgeStyle=orthogonalEdgeStyle;html=1;fontSize=24;fontColor=#1A1A1A;fillColor=#FF3333;strokeColor=#FF3333;" edge="1" parent="1" source="93" target="100">
                    <mxGeometry relative="1" as="geometry"/>
                </mxCell>
                <mxCell id="93" value="&lt;font color=&quot;#ffffff&quot;&gt;&lt;span style=&quot;font-size: 14px;&quot;&gt;DP900&lt;/span&gt;&lt;/font&gt;" style="rounded=1;whiteSpace=wrap;html=1;strokeColor=#FFFFFF;fillColor=#007FFF;shadow=1;align=left;" vertex="1" parent="1">
                    <mxGeometry x="287.1699999999999" y="380" width="249.01" height="30" as="geometry"/>
                </mxCell>
                <mxCell id="94" value="&lt;h1 style=&quot;border-color: var(--border-color);&quot;&gt;&lt;font style=&quot;border-color: var(--border-color); font-size: 14px;&quot;&gt;データベース管理者：★&lt;/font&gt;&lt;/h1&gt;" style="rounded=1;whiteSpace=wrap;html=1;align=center;" vertex="1" parent="1">
                    <mxGeometry x="286.8399999999999" y="310" width="249.67" height="30" as="geometry"/>
                </mxCell>
                <mxCell id="95" value="&lt;div style=&quot;&quot;&gt;&lt;font style=&quot;font-size: 12px;&quot;&gt;&lt;span style=&quot;color: rgb(26, 26, 26);&quot;&gt;Microsoft Certified:&lt;/span&gt;&lt;font style=&quot;&quot; color=&quot;#1a1a1a&quot;&gt;&lt;br&gt;&lt;/font&gt;&lt;/font&gt;&lt;/div&gt;&lt;div style=&quot;&quot;&gt;&lt;font style=&quot;font-size: 12px;&quot; color=&quot;#1a1a1a&quot;&gt;Azure Database Administrator Associate&lt;/font&gt;&lt;br&gt;&lt;/div&gt;" style="rounded=1;whiteSpace=wrap;html=1;align=left;" vertex="1" parent="1">
                    <mxGeometry x="560" y="510" width="249.67" height="40" as="geometry"/>
                </mxCell>
                <mxCell id="97" value="&lt;h1 style=&quot;border-color: var(--border-color); text-align: left;&quot;&gt;&lt;font style=&quot;border-color: var(--border-color); font-size: 14px;&quot;&gt;データベース管理者：★★&lt;/font&gt;&lt;/h1&gt;" style="rounded=1;whiteSpace=wrap;html=1;" vertex="1" parent="1">
                    <mxGeometry x="560" y="480" width="249.67" height="30" as="geometry"/>
                </mxCell>
                <mxCell id="122" style="edgeStyle=orthogonalEdgeStyle;html=1;fontSize=12;fontColor=#1A1A1A;fillColor=#FF3333;strokeColor=#FF3333;" edge="1" parent="1" source="99" target="110">
                    <mxGeometry relative="1" as="geometry"/>
                </mxCell>
                <mxCell id="136" style="edgeStyle=orthogonalEdgeStyle;html=1;entryX=0.5;entryY=0;entryDx=0;entryDy=0;shadow=0;strokeColor=#CCCCCC;fontSize=36;fontColor=#1A1A1A;" edge="1" parent="1" target="123">
                    <mxGeometry relative="1" as="geometry">
                        <mxPoint x="290" y="630" as="sourcePoint"/>
                    </mxGeometry>
                </mxCell>
                <mxCell id="137" style="edgeStyle=orthogonalEdgeStyle;html=1;entryX=0.5;entryY=0;entryDx=0;entryDy=0;shadow=0;strokeColor=#007FFF;fontSize=36;fontColor=#1A1A1A;exitX=0.5;exitY=1;exitDx=0;exitDy=0;fillColor=#007FFF;" edge="1" parent="1" source="99" target="123">
                    <mxGeometry relative="1" as="geometry">
                        <Array as="points">
                            <mxPoint x="412" y="630"/>
                            <mxPoint x="138" y="630"/>
                        </Array>
                    </mxGeometry>
                </mxCell>
                <mxCell id="99" value="&lt;font color=&quot;#ffffff&quot;&gt;&lt;span style=&quot;font-size: 14px;&quot;&gt;DP100&lt;/span&gt;&lt;/font&gt;" style="rounded=1;whiteSpace=wrap;html=1;strokeColor=#FFFFFF;fillColor=#007FFF;shadow=1;align=left;" vertex="1" parent="1">
                    <mxGeometry x="287.1699999999999" y="550" width="249.01" height="30" as="geometry"/>
                </mxCell>
                <mxCell id="100" value="&lt;h1 style=&quot;border-color: var(--border-color); text-align: left;&quot;&gt;&lt;font style=&quot;border-color: var(--border-color); font-size: 14px;&quot;&gt;データサイエンティスト：★★&lt;/font&gt;&lt;/h1&gt;" style="rounded=1;whiteSpace=wrap;html=1;" vertex="1" parent="1">
                    <mxGeometry x="286.8399999999999" y="480" width="249.67" height="30" as="geometry"/>
                </mxCell>
                <mxCell id="102" value="&lt;font color=&quot;#ffffff&quot;&gt;&lt;span style=&quot;font-size: 14px;&quot;&gt;DP203&lt;/span&gt;&lt;/font&gt;" style="rounded=1;whiteSpace=wrap;html=1;strokeColor=#FFFFFF;fillColor=#007FFF;shadow=1;align=left;" vertex="1" parent="1">
                    <mxGeometry x="14.319999999999968" y="550" width="249.01" height="30" as="geometry"/>
                </mxCell>
                <mxCell id="103" value="&lt;h1 style=&quot;border-color: var(--border-color); text-align: left;&quot;&gt;&lt;span style=&quot;font-size: 14px;&quot;&gt;データエンジニア：★★&lt;/span&gt;&lt;/h1&gt;" style="rounded=1;whiteSpace=wrap;html=1;" vertex="1" parent="1">
                    <mxGeometry x="13.66" y="480" width="249.67" height="30" as="geometry"/>
                </mxCell>
                <mxCell id="105" value="&lt;font color=&quot;#ffffff&quot;&gt;&lt;span style=&quot;font-size: 14px;&quot;&gt;MB260&lt;/span&gt;&lt;/font&gt;" style="rounded=1;whiteSpace=wrap;html=1;strokeColor=#FFFFFF;fillColor=#007FFF;shadow=1;align=left;" vertex="1" parent="1">
                    <mxGeometry x="13.990000000000009" y="940" width="249.01" height="30" as="geometry"/>
                </mxCell>
                <mxCell id="106" value="&lt;h1 style=&quot;border-color: var(--border-color); text-align: left;&quot;&gt;&lt;span style=&quot;font-size: 14px;&quot;&gt;データエンジニア&lt;/span&gt;&lt;/h1&gt;" style="rounded=1;whiteSpace=wrap;html=1;" vertex="1" parent="1">
                    <mxGeometry x="13.66000000000001" y="870" width="249.67" height="30" as="geometry"/>
                </mxCell>
                <mxCell id="107" value="&lt;span style=&quot;font-size: 14px;&quot;&gt;&lt;b&gt;開発者&lt;/b&gt;&lt;/span&gt;" style="rounded=1;whiteSpace=wrap;html=1;" vertex="1" parent="1">
                    <mxGeometry x="13.825000000000003" y="990" width="249.34" height="30" as="geometry"/>
                </mxCell>
                <mxCell id="108" value="&lt;font style=&quot;font-size: 14px;&quot; color=&quot;#ffffff&quot;&gt;DP420&lt;/font&gt;" style="rounded=1;whiteSpace=wrap;html=1;strokeColor=#FFFFFF;fillColor=#007FFF;shadow=1;align=left;" vertex="1" parent="1">
                    <mxGeometry x="13.66000000000001" y="1060" width="249.67" height="30" as="geometry"/>
                </mxCell>
                <mxCell id="110" value="&lt;span style=&quot;font-size: 14px;&quot;&gt;&lt;b&gt;データアナリスト：★★&lt;/b&gt;&lt;/span&gt;" style="rounded=1;whiteSpace=wrap;html=1;" vertex="1" parent="1">
                    <mxGeometry x="287.0049999999999" y="680" width="249.34" height="30" as="geometry"/>
                </mxCell>
                <mxCell id="133" style="edgeStyle=orthogonalEdgeStyle;html=1;fontSize=24;fontColor=#1A1A1A;fillColor=#FF3333;strokeColor=#FF3333;" edge="1" parent="1" source="111" target="132">
                    <mxGeometry relative="1" as="geometry"/>
                </mxCell>
                <mxCell id="111" value="&lt;font style=&quot;font-size: 14px;&quot; color=&quot;#ffffff&quot;&gt;DP500&lt;/font&gt;" style="rounded=1;whiteSpace=wrap;html=1;strokeColor=#FFFFFF;fillColor=#007FFF;shadow=1;align=left;" vertex="1" parent="1">
                    <mxGeometry x="286.8399999999999" y="750" width="249.67" height="30" as="geometry"/>
                </mxCell>
                <mxCell id="124" value="&lt;font style=&quot;font-size: 24px;&quot;&gt;Specialty&lt;/font&gt;" style="text;strokeColor=none;align=center;fillColor=none;html=1;verticalAlign=middle;whiteSpace=wrap;rounded=0;shadow=1;labelBackgroundColor=none;fontSize=12;fontColor=#1A1A1A;" vertex="1" parent="1">
                    <mxGeometry x="113" y="830" width="60" height="30" as="geometry"/>
                </mxCell>
                <mxCell id="98" value="&lt;div style=&quot;&quot;&gt;&lt;span style=&quot;color: rgb(26, 26, 26); font-size: 14px;&quot;&gt;Microsoft Certified:&lt;/span&gt;&lt;font color=&quot;#1a1a1a&quot;&gt;&lt;span style=&quot;font-size: 14px;&quot;&gt;&lt;br&gt;&lt;/span&gt;&lt;/font&gt;&lt;/div&gt;&lt;div style=&quot;&quot;&gt;&lt;font color=&quot;#1a1a1a&quot;&gt;&lt;span style=&quot;font-size: 14px;&quot;&gt;Azure Data Scientist Associate&lt;/span&gt;&lt;/font&gt;&lt;br&gt;&lt;/div&gt;" style="rounded=1;whiteSpace=wrap;html=1;align=left;" vertex="1" parent="1">
                    <mxGeometry x="286.8399999999999" y="510" width="249.67" height="40" as="geometry"/>
                </mxCell>
                <mxCell id="101" value="&lt;div style=&quot;&quot;&gt;&lt;font color=&quot;#1a1a1a&quot;&gt;&lt;span style=&quot;font-size: 14px;&quot;&gt;Microsoft Certified:&lt;/span&gt;&lt;/font&gt;&lt;/div&gt;&lt;div style=&quot;&quot;&gt;&lt;font color=&quot;#1a1a1a&quot;&gt;&lt;span style=&quot;font-size: 14px;&quot;&gt;Azure Data Engineer Associate&lt;/span&gt;&lt;/font&gt;&lt;br&gt;&lt;/div&gt;" style="rounded=1;whiteSpace=wrap;html=1;align=left;" vertex="1" parent="1">
                    <mxGeometry x="13.659999999999968" y="510" width="249.67" height="40" as="geometry"/>
                </mxCell>
                <mxCell id="92" value="&lt;div style=&quot;&quot;&gt;&lt;font color=&quot;#1a1a1a&quot;&gt;&lt;span style=&quot;font-size: 14px;&quot;&gt;Microsoft Certified:&lt;/span&gt;&lt;/font&gt;&lt;/div&gt;&lt;div style=&quot;&quot;&gt;&lt;font color=&quot;#1a1a1a&quot;&gt;&lt;span style=&quot;font-size: 14px;&quot;&gt;Azure Data Fundamentals&lt;/span&gt;&lt;/font&gt;&lt;br&gt;&lt;/div&gt;" style="rounded=1;whiteSpace=wrap;html=1;align=left;" vertex="1" parent="1">
                    <mxGeometry x="286.8399999999999" y="340" width="249.67" height="40" as="geometry"/>
                </mxCell>
                <mxCell id="112" value="&lt;div style=&quot;&quot;&gt;&lt;font style=&quot;font-size: 12px;&quot; color=&quot;#1a1a1a&quot;&gt;Microsoft Certified:&lt;/font&gt;&lt;/div&gt;&lt;div style=&quot;&quot;&gt;&lt;font style=&quot;font-size: 12px;&quot; color=&quot;#1a1a1a&quot;&gt;Azure Enterprise Data Analyst Associate&lt;/font&gt;&lt;br&gt;&lt;/div&gt;" style="rounded=1;whiteSpace=wrap;html=1;align=left;" vertex="1" parent="1">
                    <mxGeometry x="286.8399999999999" y="710" width="249.67" height="40" as="geometry"/>
                </mxCell>
                <mxCell id="104" value="&lt;div style=&quot;&quot;&gt;&lt;font color=&quot;#1a1a1a&quot;&gt;&lt;span style=&quot;font-size: 14px;&quot;&gt;Microsoft Certified:&lt;/span&gt;&lt;/font&gt;&lt;/div&gt;&lt;div style=&quot;&quot;&gt;&lt;font color=&quot;#1a1a1a&quot;&gt;&lt;span style=&quot;font-size: 14px;&quot;&gt;Customer Data Platform Specialty&lt;/span&gt;&lt;/font&gt;&lt;br&gt;&lt;/div&gt;" style="rounded=1;whiteSpace=wrap;html=1;align=left;" vertex="1" parent="1">
                    <mxGeometry x="13.66000000000001" y="900" width="249.67" height="40" as="geometry"/>
                </mxCell>
                <mxCell id="109" value="&lt;div style=&quot;&quot;&gt;&lt;span style=&quot;color: rgb(26, 26, 26); font-size: 14px;&quot;&gt;Microsoft Certified:&lt;/span&gt;&lt;font color=&quot;#1a1a1a&quot;&gt;&lt;span style=&quot;font-size: 14px;&quot;&gt;&lt;br&gt;&lt;/span&gt;&lt;/font&gt;&lt;/div&gt;&lt;div style=&quot;&quot;&gt;&lt;font color=&quot;#1a1a1a&quot;&gt;&lt;span style=&quot;font-size: 14px;&quot;&gt;Azure Cosmos DB Developer Specialty&lt;/span&gt;&lt;/font&gt;&lt;br&gt;&lt;/div&gt;" style="rounded=1;whiteSpace=wrap;html=1;align=left;" vertex="1" parent="1">
                    <mxGeometry x="13.66000000000001" y="1020" width="249.67" height="40" as="geometry"/>
                </mxCell>
                <mxCell id="132" value="&lt;font style=&quot;font-size: 36px;&quot;&gt;上級：★&lt;/font&gt;&lt;span style=&quot;font-size: 36px;&quot;&gt;★&lt;/span&gt;&lt;span style=&quot;font-size: 36px;&quot;&gt;★&lt;/span&gt;" style="rounded=1;whiteSpace=wrap;html=1;shadow=1;" vertex="1" parent="1">
                    <mxGeometry x="301.67" y="940" width="220" height="70" as="geometry"/>
                </mxCell>
                <mxCell id="139" style="html=1;shadow=0;strokeColor=#007FFF;fontSize=36;fontColor=#1A1A1A;exitX=0.5;exitY=1;exitDx=0;exitDy=0;fillColor=#007FFF;entryX=0.5;entryY=0;entryDx=0;entryDy=0;" edge="1" parent="1" source="102" target="123">
                    <mxGeometry relative="1" as="geometry">
                        <mxPoint x="421.6749999999997" y="590" as="sourcePoint"/>
                        <mxPoint x="140" y="810" as="targetPoint"/>
                    </mxGeometry>
                </mxCell>
                <mxCell id="140" style="html=1;shadow=0;strokeColor=#007FFF;fontSize=36;fontColor=#1A1A1A;exitX=0.5;exitY=1;exitDx=0;exitDy=0;fillColor=#007FFF;entryX=0.5;entryY=0;entryDx=0;entryDy=0;edgeStyle=orthogonalEdgeStyle;" edge="1" parent="1" source="96" target="123">
                    <mxGeometry relative="1" as="geometry">
                        <mxPoint x="421.6749999999997" y="590" as="sourcePoint"/>
                        <mxPoint x="147.9949999999999" y="830" as="targetPoint"/>
                        <Array as="points">
                            <mxPoint x="685" y="630"/>
                            <mxPoint x="138" y="630"/>
                        </Array>
                    </mxGeometry>
                </mxCell>
                <mxCell id="142" value="&lt;div style=&quot;&quot;&gt;&lt;font style=&quot;&quot;&gt;&lt;span style=&quot;background-color: initial;&quot;&gt;&lt;b style=&quot;font-size: 18px;&quot;&gt;&lt;font color=&quot;#ff3333&quot;&gt;赤線&lt;/font&gt;&lt;/b&gt;&lt;span style=&quot;font-size: 18px;&quot;&gt;：&lt;/span&gt;&lt;font style=&quot;font-size: 14px;&quot;&gt;必須&lt;/font&gt;&lt;/span&gt;&lt;/font&gt;&lt;/div&gt;" style="text;strokeColor=none;align=left;fillColor=none;html=1;verticalAlign=middle;whiteSpace=wrap;rounded=0;shadow=0;labelBackgroundColor=none;fontSize=36;fontColor=#1A1A1A;" vertex="1" parent="1">
                    <mxGeometry x="545.8399999999999" y="179" width="130" height="40" as="geometry"/>
                </mxCell>
                <mxCell id="143" value="&lt;div style=&quot;&quot;&gt;&lt;font style=&quot;font-size: 18px;&quot;&gt;&lt;span style=&quot;background-color: initial;&quot;&gt;&lt;b&gt;&lt;font color=&quot;#007fff&quot;&gt;青線&lt;/font&gt;&lt;/b&gt;：&lt;/span&gt;&lt;/font&gt;&lt;span style=&quot;background-color: initial;&quot;&gt;&lt;font style=&quot;font-size: 14px;&quot;&gt;余裕があれば取ると良さそう&lt;/font&gt;&lt;/span&gt;&lt;/div&gt;" style="text;strokeColor=none;align=left;fillColor=none;html=1;verticalAlign=middle;whiteSpace=wrap;rounded=0;shadow=0;labelBackgroundColor=none;fontSize=36;fontColor=#1A1A1A;" vertex="1" parent="1">
                    <mxGeometry x="545.8399999999999" y="220" width="273.82" height="40" as="geometry"/>
                </mxCell>
                <mxCell id="144" value="&lt;div style=&quot;&quot;&gt;&lt;font style=&quot;&quot;&gt;&lt;span style=&quot;background-color: initial;&quot;&gt;&lt;b style=&quot;font-size: 18px;&quot;&gt;黒線&lt;/b&gt;&lt;span style=&quot;font-size: 18px;&quot;&gt;：&lt;/span&gt;&lt;span style=&quot;font-size: 14px;&quot;&gt;どちらでも良い&lt;/span&gt;&lt;/span&gt;&lt;/font&gt;&lt;/div&gt;" style="text;strokeColor=none;align=left;fillColor=none;html=1;verticalAlign=middle;whiteSpace=wrap;rounded=0;shadow=0;labelBackgroundColor=none;fontSize=36;fontColor=#1A1A1A;" vertex="1" parent="1">
                    <mxGeometry x="545.84" y="139" width="174.16" height="40" as="geometry"/>
                </mxCell>
                <mxCell id="79" value="&lt;div style=&quot;&quot;&gt;&lt;span style=&quot;background-color: initial; color: rgb(26, 26, 26); font-size: 14px;&quot;&gt;Microsoft Certified:&lt;/span&gt;&lt;/div&gt;&lt;font style=&quot;border-color: var(--border-color);&quot;&gt;&lt;div style=&quot;&quot;&gt;&lt;span style=&quot;color: rgb(26, 26, 26); font-size: 14px; background-color: initial;&quot;&gt;Azure Fundamentals&lt;/span&gt;&lt;/div&gt;&lt;/font&gt;" style="rounded=1;whiteSpace=wrap;html=1;align=left;" vertex="1" parent="1">
                    <mxGeometry x="287.16999999999996" y="190" width="249.67" height="40" as="geometry"/>
                </mxCell>
            </root>
        </mxGraphModel>
    </diagram>
</mxfile>